<?xml version="1.0" encoding="utf-8"?>
<!-- Generator: Adobe Illustrator 19.1.0, SVG Export Plug-In . SVG Version: 6.00 Build 0)  -->
<svg version="1.1"
	 id="svg2" xmlns:ns1="http://sozi.baierouge.fr" xmlns:rdf="http://www.w3.org/1999/02/22-rdf-syntax-ns#" xmlns:cc="http://creativecommons.org/ns#" xmlns:svg="http://www.w3.org/2000/svg" xmlns:dc="http://purl.org/dc/elements/1.1/" xmlns:inkscape="http://www.inkscape.org/namespaces/inkscape" xmlns:sodipodi="http://sodipodi.sourceforge.net/DTD/sodipodi-0.dtd"
	 xmlns="http://www.w3.org/2000/svg" xmlns:xlink="http://www.w3.org/1999/xlink" x="0px" y="0px" viewBox="-342 307 35 35"
	 style="enable-background:new -342 307 35 35;" xml:space="preserve">
<style type="text/css">
	.st0{fill:#6F6C6D;}
</style>
<g id="g10" transform="matrix(1.25 0 0 -1.25 0 35)">
	<g id="g6008" transform="matrix(.32503 0 0 .32503 -100.86 -132.32)">
		<g id="g5704" transform="translate(362.96 472.25)">
			<path id="path5706" class="st0" d="M-841.8-755.6c0-4.9-4-8.9-8.9-8.9c-4.9,0-8.9,4-8.9,8.9s4,8.9,8.9,8.9
				C-845.8-746.7-841.8-750.7-841.8-755.6"/>
		</g>
		<g id="g5708" transform="translate(362.69 459.83)">
			<path id="path5710" class="st0" d="M-841.8-755.6c-1.4,0.9-3.8,1.7-5.5,1.7h-6c-1.7,0-4.1-0.8-5.5-1.7l-0.1-0.1
				c-1.4-0.9-2.5-3.1-2.5-4.7V-772c0-1.7,0.6-4.1,1.2-5.4c0.7-1.3,1.5-2.4,1.8-2.4c0.3,0,0.7-1.3,1-3l2-12.1c0.3-1.6,1.5-3,2.7-3
				h4.5c1.2,0,2.5,1.3,2.7,3l2,12.1c0.3,1.6,0.7,3,1,3c0.3,0,1.1,1.1,1.8,2.4c0.7,1.3,1.2,3.8,1.2,5.4v11.6
				C-839.2-758.8-840.3-756.6-841.8-755.6C-841.7-755.7-841.8-755.6-841.8-755.6z"/>
		</g>
	</g>
</g>
</svg>
